<svg width="198" height="34" viewBox="0 0 198 34" fill="none" xmlns="http://www.w3.org/2000/svg">
<path d="M38.9052 0.3026C38.2043 1.3906 37.0306 2.04 35.7668 2.04H34.8331C34.8403 1.9312 34.8495 1.8224 34.8495 1.71224C34.8495 0.76636 34.1085 0 33.1938 0C32.5922 0 32.0385 0.33728 31.7466 0.8806C31.5539 1.23964 31.3435 1.58848 31.1443 1.94412L27.5357 1.11452C26.2785 0.82552 24.9943 0.68 23.7062 0.68C22.8074 0.68 21.9105 0.75072 21.0221 0.89216L21.0149 0.89352C16.2175 1.65648 11.3708 2.04 6.51686 2.04H0V4.08H0.657538V6.8C0.657538 7.5514 1.24603 8.16 1.97261 8.16H5.03542C10.8652 8.16 16.6758 7.47592 22.3563 6.12V6.8L23.4294 6.43008C23.9666 6.24512 24.3289 5.72492 24.3289 5.13944V2.72C26.0779 2.72 27.8231 2.89884 29.5379 3.25312L30.2467 3.4L30.3112 3.41428C28.7877 5.9738 27.0965 8.42452 25.2475 10.7467C21.5758 15.3571 17.4649 19.5738 12.9759 23.3315L7.02579 28.3125C6.32486 28.8993 5.91784 29.782 5.91784 30.7142V30.9101C5.91784 32.6169 7.25527 34 8.90569 34C9.52838 34 10.1353 33.7987 10.6422 33.4247L13.6603 31.195C17.2544 28.5403 20.5494 25.4769 23.484 22.0626C27.5298 17.3556 30.8477 12.0306 33.3214 6.27572L34.4537 3.64072C34.4872 3.56184 34.5135 3.48024 34.5431 3.4H35.7668C37.4718 3.4 39.0538 2.52416 40 1.0574L38.9052 0.3026ZM9.20553 31.96C8.48027 31.96 7.89045 31.35 7.89045 30.6C7.89045 29.85 8.48027 29.24 9.20553 29.24C9.93079 29.24 10.5206 29.85 10.5206 30.6C10.5206 31.35 9.93079 31.96 9.20553 31.96ZM32.8769 3.4C32.5139 3.4 32.2194 3.09536 32.2194 2.72C32.2194 2.34464 32.5139 2.04 32.8769 2.04C33.2399 2.04 33.5344 2.34464 33.5344 2.72C33.5344 3.09536 33.2399 3.4 32.8769 3.4Z" fill="#EB1616"/>
<path d="M49.4268 6.32H55.0268C57.1734 6.32 58.8161 6.75867 59.9548 7.636C61.0934 8.51333 61.6628 10.016 61.6628 12.144C61.6628 13.5253 61.3828 14.608 60.8228 15.392C60.2628 16.1573 59.4508 16.624 58.3868 16.792C61.0001 17.296 62.3068 19.1627 62.3068 22.392C62.3068 24.576 61.7748 26.228 60.7108 27.348C59.6468 28.4493 58.0694 29 55.9788 29H49.4268V6.32ZM54.9708 15.588C56.1654 15.588 56.9774 15.3267 57.4068 14.804C57.8548 14.2627 58.0788 13.3947 58.0788 12.2C58.0788 11.0427 57.7894 10.2587 57.2108 9.848C56.6508 9.41867 55.7081 9.204 54.3828 9.204H53.5428V15.588H54.9708ZM55.1388 26.088C56.3521 26.088 57.1921 25.7987 57.6588 25.22C58.1254 24.6413 58.3588 23.6893 58.3588 22.364C58.3588 21.0013 58.0974 20.012 57.5748 19.396C57.0708 18.7613 56.2121 18.444 54.9988 18.444H53.5428V26.088H55.1388ZM68.3733 6.32H72.7973L77.3333 29H73.4973L72.6013 23.764H68.6533L67.7293 29H63.8373L68.3733 6.32ZM72.1533 21.132L70.6133 11.612L69.0733 21.132H72.1533ZM79.6143 6.32H85.0743C87.4636 6.32 89.2463 6.77733 90.4223 7.692C91.5983 8.588 92.1863 10.1373 92.1863 12.34C92.1863 13.7773 91.9716 14.9533 91.5423 15.868C91.1316 16.764 90.4129 17.4173 89.3863 17.828L92.5503 29H88.4063L85.6903 18.612H83.7303V29H79.6143V6.32ZM85.0463 16.036C86.2223 16.036 87.0529 15.7653 87.5383 15.224C88.0423 14.6827 88.2943 13.796 88.2943 12.564C88.2943 11.3693 88.0703 10.5013 87.6223 9.96C87.1929 9.41867 86.4089 9.148 85.2703 9.148H83.7303V16.036H85.0463ZM95.3096 6.32H100.91C103.056 6.32 104.699 6.75867 105.838 7.636C106.976 8.51333 107.546 10.016 107.546 12.144C107.546 13.5253 107.266 14.608 106.706 15.392C106.146 16.1573 105.334 16.624 104.27 16.792C106.883 17.296 108.19 19.1627 108.19 22.392C108.19 24.576 107.658 26.228 106.594 27.348C105.53 28.4493 103.952 29 101.862 29H95.3096V6.32ZM100.854 15.588C102.048 15.588 102.86 15.3267 103.29 14.804C103.738 14.2627 103.962 13.3947 103.962 12.2C103.962 11.0427 103.672 10.2587 103.094 9.848C102.534 9.41867 101.591 9.204 100.266 9.204H99.4256V15.588H100.854ZM101.022 26.088C102.235 26.088 103.075 25.7987 103.542 25.22C104.008 24.6413 104.242 23.6893 104.242 22.364C104.242 21.0013 103.98 20.012 103.458 19.396C102.954 18.7613 102.095 18.444 100.882 18.444H99.4256V26.088H101.022ZM110.896 6.32H120.416V9.232H115.012V15.756H119.268V18.64H115.012V26.172H120.472V29H110.896V6.32ZM122.872 6.32H128.332C130.721 6.32 132.504 6.77733 133.68 7.692C134.856 8.588 135.444 10.1373 135.444 12.34C135.444 13.7773 135.229 14.9533 134.8 15.868C134.389 16.764 133.671 17.4173 132.644 17.828L135.808 29H131.664L128.948 18.612H126.988V29H122.872V6.32ZM128.304 16.036C129.48 16.036 130.311 15.7653 130.796 15.224C131.3 14.6827 131.552 13.796 131.552 12.564C131.552 11.3693 131.328 10.5013 130.88 9.96C130.451 9.41867 129.667 9.148 128.528 9.148H126.988V16.036H128.304ZM144.562 29.308C142.21 29.308 140.539 28.6547 139.55 27.348C138.579 26.0227 138.094 24.156 138.094 21.748V13.656C138.094 11.1733 138.579 9.288 139.55 8C140.521 6.712 142.191 6.068 144.562 6.068C146.783 6.068 148.361 6.628 149.294 7.748C150.227 8.868 150.694 10.4827 150.694 12.592V14.496H146.718V12.536C146.718 11.7333 146.681 11.108 146.606 10.66C146.531 10.1933 146.335 9.82 146.018 9.54C145.719 9.24133 145.243 9.092 144.59 9.092C143.918 9.092 143.414 9.25067 143.078 9.568C142.742 9.86667 142.518 10.2773 142.406 10.8C142.313 11.304 142.266 11.9667 142.266 12.788V22.616C142.266 23.904 142.434 24.8373 142.77 25.416C143.106 25.976 143.713 26.256 144.59 26.256C145.225 26.256 145.691 26.1067 145.99 25.808C146.307 25.5093 146.503 25.1173 146.578 24.632C146.671 24.128 146.718 23.4653 146.718 22.644V20.6H150.694V22.42C150.694 24.604 150.237 26.3027 149.322 27.516C148.407 28.7107 146.821 29.308 144.562 29.308ZM153.579 6.32H159.039C161.428 6.32 163.211 6.77733 164.387 7.692C165.563 8.588 166.151 10.1373 166.151 12.34C166.151 13.7773 165.936 14.9533 165.507 15.868C165.096 16.764 164.378 17.4173 163.351 17.828L166.515 29H162.371L159.655 18.612H157.695V29H153.579V6.32ZM159.011 16.036C160.187 16.036 161.018 15.7653 161.503 15.224C162.007 14.6827 162.259 13.796 162.259 12.564C162.259 11.3693 162.035 10.5013 161.587 9.96C161.158 9.41867 160.374 9.148 159.235 9.148H157.695V16.036H159.011ZM175.353 29.308C173.001 29.308 171.321 28.6827 170.313 27.432C169.305 26.1627 168.801 24.3147 168.801 21.888V13.376C168.801 10.968 169.305 9.148 170.313 7.916C171.321 6.684 173.001 6.068 175.353 6.068C177.686 6.068 179.357 6.684 180.365 7.916C181.373 9.148 181.877 10.968 181.877 13.376V21.888C181.877 24.296 181.364 26.1347 180.337 27.404C179.329 28.6733 177.668 29.308 175.353 29.308ZM175.353 26.256C176.268 26.256 176.884 25.9667 177.201 25.388C177.518 24.8093 177.677 23.9693 177.677 22.868V12.424C177.677 11.3227 177.518 10.492 177.201 9.932C176.902 9.372 176.286 9.092 175.353 9.092C174.42 9.092 173.794 9.38133 173.477 9.96C173.16 10.52 173.001 11.3413 173.001 12.424V22.868C173.001 23.9693 173.16 24.8093 173.477 25.388C173.794 25.9667 174.42 26.256 175.353 26.256ZM184.942 6.32H191.606C195.47 6.32 197.402 8.46667 197.402 12.76C197.402 16.8667 195.377 18.92 191.326 18.92H189.058V29H184.942V6.32ZM190.654 16.008C191.774 16.008 192.53 15.7747 192.922 15.308C193.314 14.8227 193.51 13.964 193.51 12.732C193.51 11.836 193.445 11.1547 193.314 10.688C193.184 10.2027 192.913 9.83867 192.502 9.596C192.11 9.35333 191.494 9.232 190.654 9.232H189.058V16.008H190.654Z" fill="white"/>
</svg>
